<svg xmlns="http://www.w3.org/2000/svg" viewBox="0 0 256 128" shape-rendering="crispEdges">
  <!-- Background - deep darkness -->
  <rect x="0"   y="0"   width="256" height="128" fill="#0d0d14"/>
  <!-- Left wall -->
  <rect x="0"   y="0"   width="40"  height="128" fill="#29366f"/>
  <!-- Right wall -->
  <rect x="216" y="0"   width="40"  height="128" fill="#29366f"/>
  <!-- Ceiling -->
  <rect x="0"   y="0"   width="256" height="20"  fill="#1a1c2c"/>
  <!-- Stone blocks - ceiling -->
  <rect x="0"   y="0"   width="32"  height="20"  fill="#29366f"/>
  <rect x="34"  y="0"   width="32"  height="20"  fill="#1a1c2c"/>
  <rect x="68"  y="0"   width="32"  height="20"  fill="#29366f"/>
  <rect x="102" y="0"   width="32"  height="20"  fill="#1a1c2c"/>
  <rect x="136" y="0"   width="32"  height="20"  fill="#29366f"/>
  <rect x="170" y="0"   width="32"  height="20"  fill="#1a1c2c"/>
  <rect x="204" y="0"   width="32"  height="20"  fill="#29366f"/>
  <!-- Ceiling stone joints -->
  <rect x="32"  y="0"   width="2"   height="20"  fill="#0d0d14"/>
  <rect x="66"  y="0"   width="2"   height="20"  fill="#0d0d14"/>
  <rect x="100" y="0"   width="2"   height="20"  fill="#0d0d14"/>
  <rect x="134" y="0"   width="2"   height="20"  fill="#0d0d14"/>
  <rect x="168" y="0"   width="2"   height="20"  fill="#0d0d14"/>
  <rect x="202" y="0"   width="2"   height="20"  fill="#0d0d14"/>
  <!-- Left wall stone blocks -->
  <rect x="0"   y="22"  width="40"  height="20"  fill="#333c57"/>
  <rect x="0"   y="44"  width="40"  height="20"  fill="#29366f"/>
  <rect x="0"   y="66"  width="40"  height="20"  fill="#333c57"/>
  <rect x="0"   y="88"  width="40"  height="20"  fill="#29366f"/>
  <rect x="0"   y="110" width="40"  height="18"  fill="#333c57"/>
  <!-- Left wall joints -->
  <rect x="0"   y="20"  width="40"  height="2"   fill="#0d0d14"/>
  <rect x="0"   y="42"  width="40"  height="2"   fill="#0d0d14"/>
  <rect x="0"   y="64"  width="40"  height="2"   fill="#0d0d14"/>
  <rect x="0"   y="86"  width="40"  height="2"   fill="#0d0d14"/>
  <rect x="0"   y="108" width="40"  height="2"   fill="#0d0d14"/>
  <rect x="20"  y="20"  width="2"   height="88"  fill="#0d0d14"/>
  <!-- Right wall stone blocks -->
  <rect x="216" y="22"  width="40"  height="20"  fill="#333c57"/>
  <rect x="216" y="44"  width="40"  height="20"  fill="#29366f"/>
  <rect x="216" y="66"  width="40"  height="20"  fill="#333c57"/>
  <rect x="216" y="88"  width="40"  height="20"  fill="#29366f"/>
  <rect x="216" y="110" width="40"  height="18"  fill="#333c57"/>
  <!-- Right wall joints -->
  <rect x="216" y="20"  width="40"  height="2"   fill="#0d0d14"/>
  <rect x="216" y="42"  width="40"  height="2"   fill="#0d0d14"/>
  <rect x="216" y="64"  width="40"  height="2"   fill="#0d0d14"/>
  <rect x="216" y="86"  width="40"  height="2"   fill="#0d0d14"/>
  <rect x="216" y="108" width="40"  height="2"   fill="#0d0d14"/>
  <rect x="234" y="20"  width="2"   height="88"  fill="#0d0d14"/>
  <!-- Left torch on wall -->
  <rect x="30"  y="28"  width="6"   height="16"  fill="#5c3a1a"/>
  <rect x="28"  y="26"  width="10"  height="6"   fill="#7a4e24"/>
  <!-- Left torch flame -->
  <rect x="30"  y="16"  width="6"   height="12"  fill="#ef7d57"/>
  <rect x="31"  y="12"  width="4"   height="6"   fill="#ffcd75"/>
  <rect x="32"  y="8"   width="2"   height="6"   fill="#f5d76e"/>
  <!-- Left torch glow (radial sim) -->
  <rect x="20"  y="16"  width="26"  height="26"  fill="#c44a36" opacity="0.08"/>
  <rect x="24"  y="20"  width="18"  height="18"  fill="#ef7d57" opacity="0.1"/>
  <!-- Right torch on wall -->
  <rect x="220" y="28"  width="6"   height="16"  fill="#5c3a1a"/>
  <rect x="218" y="26"  width="10"  height="6"   fill="#7a4e24"/>
  <!-- Right torch flame -->
  <rect x="220" y="16"  width="6"   height="12"  fill="#ef7d57"/>
  <rect x="221" y="12"  width="4"   height="6"   fill="#ffcd75"/>
  <rect x="222" y="8"   width="2"   height="6"   fill="#f5d76e"/>
  <!-- Right torch glow -->
  <rect x="210" y="16"  width="26"  height="26"  fill="#c44a36" opacity="0.08"/>
  <rect x="214" y="20"  width="18"  height="18"  fill="#ef7d57" opacity="0.1"/>
  <!-- Floor -->
  <rect x="40"  y="108" width="176" height="20"  fill="#1a1510"/>
  <rect x="40"  y="106" width="176" height="4"   fill="#2e2518"/>
  <!-- Floor stone tiles -->
  <rect x="40"  y="108" width="40"  height="20"  fill="#2a1f14"/>
  <rect x="82"  y="108" width="40"  height="20"  fill="#1a1510"/>
  <rect x="124" y="108" width="40"  height="20"  fill="#2a1f14"/>
  <rect x="166" y="108" width="40"  height="20"  fill="#1a1510"/>
  <!-- Floor joints -->
  <rect x="80"  y="108" width="2"   height="20"  fill="#0d0d14"/>
  <rect x="122" y="108" width="2"   height="20"  fill="#0d0d14"/>
  <rect x="164" y="108" width="2"   height="20"  fill="#0d0d14"/>
  <!-- Archway center -->
  <rect x="80"  y="0"   width="96"  height="108" fill="#0d0d14"/>
  <!-- Arch sides -->
  <rect x="80"  y="0"   width="6"   height="108" fill="#1a1c2c"/>
  <rect x="170" y="0"   width="6"   height="108" fill="#1a1c2c"/>
  <!-- Arch stones left side -->
  <rect x="80"  y="20"  width="8"   height="16"  fill="#29366f"/>
  <rect x="80"  y="38"  width="8"   height="16"  fill="#333c57"/>
  <rect x="80"  y="56"  width="8"   height="16"  fill="#29366f"/>
  <rect x="80"  y="74"  width="8"   height="16"  fill="#333c57"/>
  <!-- Arch stones right side -->
  <rect x="168" y="20"  width="8"   height="16"  fill="#29366f"/>
  <rect x="168" y="38"  width="8"   height="16"  fill="#333c57"/>
  <rect x="168" y="56"  width="8"   height="16"  fill="#29366f"/>
  <rect x="168" y="74"  width="8"   height="16"  fill="#333c57"/>
  <!-- Keystone at top of arch -->
  <rect x="118" y="0"   width="20"  height="8"   fill="#566c86"/>
  <rect x="120" y="2"   width="16"  height="4"   fill="#94b0c2"/>
  <!-- Glowing runes on wall (decorative) -->
  <rect x="10"  y="70"  width="6"   height="2"   fill="#3b5dc9" opacity="0.6"/>
  <rect x="12"  y="68"  width="2"   height="6"   fill="#3b5dc9" opacity="0.6"/>
  <rect x="8"   y="72"  width="10"  height="2"   fill="#3b5dc9" opacity="0.4"/>
  <rect x="234" y="70"  width="6"   height="2"   fill="#5d275d" opacity="0.6"/>
  <rect x="236" y="68"  width="2"   height="6"   fill="#5d275d" opacity="0.6"/>
  <rect x="232" y="72"  width="10"  height="2"   fill="#5d275d" opacity="0.4"/>
  <!-- Puddle / water on floor -->
  <rect x="100" y="112" width="20"  height="6"   fill="#29366f" opacity="0.5"/>
  <rect x="102" y="113" width="16"  height="4"   fill="#3b5dc9" opacity="0.3"/>
  <!-- Chains hanging -->
  <rect x="96"  y="0"   width="2"   height="20"  fill="#566c86"/>
  <rect x="96"  y="6"   width="6"   height="2"   fill="#566c86"/>
  <rect x="96"  y="12"  width="6"   height="2"   fill="#566c86"/>
  <rect x="158" y="0"   width="2"   height="20"  fill="#566c86"/>
  <rect x="154" y="6"   width="6"   height="2"   fill="#566c86"/>
  <rect x="154" y="12"  width="6"   height="2"   fill="#566c86"/>
</svg>
