<svg xmlns="http://www.w3.org/2000/svg" viewBox="0 0 32 28" shape-rendering="crispEdges">
  <!-- Stone surround -->
  <rect x="0" y="4" width="32" height="24" fill="#566c86"/>
  <rect x="0" y="0" width="32" height="6" fill="#566c86"/>
  <!-- Mantle -->
  <rect x="0" y="4" width="32" height="4" fill="#94b0c2"/>
  <!-- Firebox opening -->
  <rect x="4" y="10" width="24" height="16" fill="#1a1c2c"/>
  <!-- Arch -->
  <rect x="6" y="8" width="20" height="4" fill="#1a1c2c"/>
  <rect x="5" y="9" width="22" height="2" fill="#1a1c2c"/>
  <!-- Logs -->
  <rect x="6" y="22" width="20" height="3" fill="#5c3a1a"/>
  <rect x="8" y="21" width="16" height="2" fill="#8b5a2b"/>
  <!-- Fire -->
  <rect x="10" y="13" width="4" height="8" fill="#c44a36"/>
  <rect x="14" y="11" width="4" height="10" fill="#ef7d57"/>
  <rect x="18" y="13" width="4" height="8" fill="#c44a36"/>
  <rect x="12" y="10" width="8" height="4" fill="#ffcd75"/>
  <rect x="13" y="9" width="6" height="2" fill="#f5d76e"/>
  <!-- Embers glow -->
  <rect x="8" y="23" width="2" height="1" fill="#ef7d57"/>
  <rect x="14" y="24" width="2" height="1" fill="#c44a36"/>
  <rect x="20" y="23" width="2" height="1" fill="#ef7d57"/>
</svg>
