<svg xmlns="http://www.w3.org/2000/svg" viewBox="0 0 128 96" shape-rendering="crispEdges">
  <!-- Sky gradient layers -->
  <rect x="0"  y="0"  width="128" height="96" fill="#1a1c2c"/>
  <rect x="0"  y="40" width="128" height="56" fill="#1e1f30"/>
  <!-- Stars -->
  <rect x="4"  y="4"  width="2"  height="2"  fill="#f4f4f4" opacity="0.8"/>
  <rect x="14" y="8"  width="2"  height="2"  fill="#f4f4f4" opacity="0.6"/>
  <rect x="26" y="3"  width="2"  height="2"  fill="#f4f4f4" opacity="0.9"/>
  <rect x="40" y="7"  width="2"  height="2"  fill="#f4f4f4" opacity="0.5"/>
  <rect x="54" y="2"  width="2"  height="2"  fill="#f4f4f4" opacity="0.7"/>
  <rect x="68" y="6"  width="2"  height="2"  fill="#f4f4f4" opacity="0.8"/>
  <rect x="80" y="2"  width="2"  height="2"  fill="#f4f4f4" opacity="0.6"/>
  <rect x="94" y="8"  width="2"  height="2"  fill="#f4f4f4" opacity="0.9"/>
  <rect x="108" y="4" width="2"  height="2"  fill="#f4f4f4" opacity="0.7"/>
  <rect x="120" y="7" width="2"  height="2"  fill="#f4f4f4" opacity="0.5"/>
  <rect x="8"  y="16" width="2"  height="2"  fill="#f4f4f4" opacity="0.4"/>
  <rect x="32" y="12" width="2"  height="2"  fill="#f4f4f4" opacity="0.6"/>
  <rect x="60" y="14" width="2"  height="2"  fill="#f4f4f4" opacity="0.5"/>
  <rect x="88" y="16" width="2"  height="2"  fill="#f4f4f4" opacity="0.4"/>
  <rect x="116" y="12" width="2" height="2"  fill="#f4f4f4" opacity="0.6"/>
  <!-- Moon -->
  <rect x="100" y="6"  width="12" height="12" fill="#e8d4a0"/>
  <rect x="98"  y="8"  width="16" height="8"  fill="#e8d4a0"/>
  <rect x="100" y="6"  width="2"  height="2"  fill="#c4a85a" opacity="0.5"/>
  <!-- Far mountain range (distant, dark) -->
  <rect x="0"   y="52" width="128" height="44" fill="#29366f"/>
  <!-- Mountain 1 left -->
  <rect x="0"   y="40" width="12" height="56" fill="#29366f"/>
  <rect x="0"   y="34" width="16" height="62" fill="#29366f"/>
  <rect x="2"   y="30" width="14" height="66" fill="#29366f"/>
  <rect x="4"   y="26" width="12" height="70" fill="#29366f"/>
  <rect x="6"   y="22" width="10" height="74" fill="#29366f"/>
  <rect x="8"   y="20" width="8"  height="76" fill="#29366f"/>
  <rect x="10"  y="24" width="6"  height="72" fill="#29366f"/>
  <rect x="12"  y="28" width="6"  height="68" fill="#29366f"/>
  <!-- Mountain 1 snow cap -->
  <rect x="8"   y="20" width="8"  height="4"  fill="#94b0c2"/>
  <rect x="9"   y="18" width="6"  height="4"  fill="#b8cad4"/>
  <rect x="10"  y="16" width="4"  height="4"  fill="#f4f4f4"/>
  <rect x="11"  y="14" width="2"  height="3"  fill="#f4f4f4"/>
  <!-- Mountain 2 center-left -->
  <rect x="18"  y="48" width="6"  height="48" fill="#29366f"/>
  <rect x="16"  y="42" width="10" height="54" fill="#29366f"/>
  <rect x="14"  y="36" width="14" height="60" fill="#29366f"/>
  <rect x="12"  y="32" width="18" height="64" fill="#3b4477"/>
  <rect x="14"  y="28" width="16" height="68" fill="#3b4477"/>
  <rect x="16"  y="24" width="14" height="72" fill="#3b4477"/>
  <rect x="18"  y="20" width="12" height="76" fill="#3b4477"/>
  <rect x="20"  y="18" width="8"  height="78" fill="#3b4477"/>
  <rect x="22"  y="16" width="6"  height="80" fill="#3b4477"/>
  <rect x="23"  y="14" width="4"  height="82" fill="#3b4477"/>
  <!-- Mountain 2 snow -->
  <rect x="22"  y="14" width="6"  height="4"  fill="#94b0c2"/>
  <rect x="23"  y="12" width="4"  height="4"  fill="#b8cad4"/>
  <rect x="24"  y="10" width="2"  height="4"  fill="#f4f4f4"/>
  <!-- Mountain 3 center (tallest) -->
  <rect x="50"  y="56" width="28" height="40" fill="#3b4477"/>
  <rect x="46"  y="50" width="36" height="46" fill="#3b4477"/>
  <rect x="42"  y="44" width="44" height="52" fill="#3b4477"/>
  <rect x="40"  y="38" width="48" height="58" fill="#29366f"/>
  <rect x="44"  y="30" width="40" height="66" fill="#3b4477"/>
  <rect x="48"  y="24" width="32" height="72" fill="#3b4477"/>
  <rect x="52"  y="18" width="24" height="78" fill="#3b4477"/>
  <rect x="56"  y="12" width="16" height="84" fill="#3b4477"/>
  <rect x="58"  y="8"  width="12" height="88" fill="#3b4477"/>
  <rect x="60"  y="4"  width="8"  height="92" fill="#3b4477"/>
  <rect x="62"  y="2"  width="4"  height="94" fill="#3b4477"/>
  <!-- Mountain 3 snow cap -->
  <rect x="56"  y="12" width="16" height="6"  fill="#94b0c2"/>
  <rect x="58"  y="8"  width="12" height="6"  fill="#b8cad4"/>
  <rect x="60"  y="4"  width="8"  height="6"  fill="#f4f4f4"/>
  <rect x="62"  y="2"  width="4"  height="4"  fill="#f4f4f4"/>
  <rect x="63"  y="0"  width="2"  height="3"  fill="#f4f4f4"/>
  <!-- Mountain 4 right -->
  <rect x="86"  y="46" width="14" height="50" fill="#3b4477"/>
  <rect x="84"  y="40" width="18" height="56" fill="#3b4477"/>
  <rect x="82"  y="34" width="22" height="62" fill="#29366f"/>
  <rect x="84"  y="28" width="20" height="68" fill="#3b4477"/>
  <rect x="86"  y="24" width="16" height="72" fill="#3b4477"/>
  <rect x="88"  y="20" width="12" height="76" fill="#3b4477"/>
  <rect x="90"  y="18" width="8"  height="78" fill="#3b4477"/>
  <!-- Mountain 4 snow -->
  <rect x="88"  y="18" width="12" height="4"  fill="#94b0c2"/>
  <rect x="90"  y="15" width="8"  height="5"  fill="#b8cad4"/>
  <rect x="91"  y="12" width="6"  height="5"  fill="#f4f4f4"/>
  <rect x="92"  y="10" width="4"  height="3"  fill="#f4f4f4"/>
  <!-- Mountain 5 far right -->
  <rect x="108" y="44" width="20" height="52" fill="#29366f"/>
  <rect x="106" y="38" width="22" height="58" fill="#29366f"/>
  <rect x="108" y="32" width="20" height="64" fill="#29366f"/>
  <rect x="110" y="28" width="18" height="68" fill="#29366f"/>
  <rect x="112" y="24" width="16" height="72" fill="#29366f"/>
  <rect x="114" y="22" width="14" height="74" fill="#29366f"/>
  <!-- Mountain 5 snow -->
  <rect x="114" y="22" width="8"  height="3"  fill="#94b0c2"/>
  <rect x="115" y="20" width="6"  height="3"  fill="#f4f4f4"/>
  <!-- Foreground ridge -->
  <rect x="0"   y="78" width="128" height="18" fill="#1a1510"/>
  <rect x="0"   y="72" width="30"  height="24" fill="#1a1510"/>
  <rect x="98"  y="72" width="30"  height="24" fill="#1a1510"/>
  <!-- Tree silhouettes -->
  <rect x="2"   y="66" width="6"  height="12" fill="#1a1510"/>
  <rect x="0"   y="62" width="10" height="8"  fill="#1a1510"/>
  <rect x="2"   y="58" width="6"  height="6"  fill="#1a1510"/>
  <rect x="4"   y="54" width="2"  height="6"  fill="#1a1510"/>
  <rect x="14"  y="68" width="6"  height="10" fill="#1a1510"/>
  <rect x="12"  y="64" width="10" height="6"  fill="#1a1510"/>
  <rect x="14"  y="60" width="6"  height="6"  fill="#1a1510"/>
  <rect x="120" y="66" width="6"  height="12" fill="#1a1510"/>
  <rect x="118" y="62" width="10" height="8"  fill="#1a1510"/>
  <rect x="120" y="58" width="6"  height="6"  fill="#1a1510"/>
  <rect x="122" y="54" width="2"  height="6"  fill="#1a1510"/>
  <rect x="108" y="68" width="6"  height="10" fill="#1a1510"/>
  <rect x="106" y="64" width="10" height="6"  fill="#1a1510"/>
  <rect x="108" y="60" width="6"  height="6"  fill="#1a1510"/>
</svg>
